<svg xmlns="http://www.w3.org/2000/svg" width="220" height="360" viewBox="0 0 220 360" fill="none"><g stroke="#7d8b68" stroke-width="1.3" stroke-linecap="round"><path d="M112 350C94 290 94 210 132 142C153 102 156 49 151 12"/><path d="M104 290C66 262 43 221 24 192M108 243C152 218 169 193 190 151M117 179C91 152 79 119 75 95M145 102C172 82 189 61 194 38M99 319C139 299 163 270 174 242"/></g><g fill="#9fab87" opacity=".85"><ellipse cx="109" cy="283" rx="12" ry="28" transform="rotate(28 109 283)"/><ellipse cx="89" cy="264" rx="12" ry="27" transform="rotate(-48 89 264)"/><ellipse cx="74" cy="245" rx="13" ry="28" transform="rotate(-66 74 245)"/><ellipse cx="48" cy="216" rx="11" ry="26" transform="rotate(-41 48 216)"/><ellipse cx="24" cy="184" rx="9" ry="23" transform="rotate(-22 24 184)"/><ellipse cx="132" cy="228" rx="13" ry="29" transform="rotate(52 132 228)"/><ellipse cx="165" cy="195" rx="12" ry="26" transform="rotate(48 165 195)"/><ellipse cx="188" cy="157" rx="10" ry="25" transform="rotate(23 188 157)"/><ellipse cx="113" cy="186" rx="11" ry="24" transform="rotate(-26 113 186)"/><ellipse cx="88" cy="146" rx="10" ry="23" transform="rotate(-42 88 146)"/><ellipse cx="77" cy="105" rx="9" ry="21" transform="rotate(-13 77 105)"/><ellipse cx="148" cy="128" rx="11" ry="26" transform="rotate(37 148 128)"/><ellipse cx="171" cy="83" rx="10" ry="24" transform="rotate(53 171 83)"/><ellipse cx="190" cy="48" rx="9" ry="21" transform="rotate(23 190 48)"/><ellipse cx="150" cy="31" rx="8" ry="22" transform="rotate(3 150 31)"/><ellipse cx="143" cy="77" rx="10" ry="23" transform="rotate(-32 143 77)"/><ellipse cx="128" cy="305" rx="12" ry="27" transform="rotate(55 128 305)"/><ellipse cx="159" cy="272" rx="11" ry="25" transform="rotate(41 159 272)"/></g><g fill="#c0c9aa" opacity=".7"><ellipse cx="57" cy="237" rx="9" ry="22" transform="rotate(-61 57 237)"/><ellipse cx="140" cy="205" rx="10" ry="23" transform="rotate(15 140 205)"/><ellipse cx="110" cy="158" rx="9" ry="20" transform="rotate(-15 110 158)"/><ellipse cx="165" cy="60" rx="8" ry="19" transform="rotate(26 165 60)"/></g></svg>
